<svg xmlns="http://www.w3.org/2000/svg" width="24" height="24" viewBox="0 0 24 24" fill="none">
    <path fill-rule="evenodd" clip-rule="evenodd"
        d="M19 20C19.2652 20 19.5196 19.8946 19.7071 19.7071C19.8946 19.5196 20 19.2652 20 19L20 5C20 4.73478 19.8946 4.48043 19.7071 4.29289C19.5196 4.10536 19.2652 4 19 4L15 4C14.4477 4 14 3.55228 14 3C14 2.44772 14.4477 2 15 2L19 2C19.7956 2 20.5587 2.31607 21.1213 2.87868C21.6839 3.44129 22 4.20435 22 5L22 19C22 19.7956 21.6839 20.5587 21.1213 21.1213C20.5587 21.6839 19.7956 22 19 22L15 22C14.4477 22 14 21.5523 14 21C14 20.4477 14.4477 20 15 20L19 20ZM8.70711 17.7071C8.31658 18.0976 7.68342 18.0976 7.29289 17.7071L2.29289 12.7071C1.90237 12.3166 1.90237 11.6834 2.29289 11.2929L7.29289 6.29289C7.68342 5.90237 8.31658 5.90237 8.70711 6.29289C9.09763 6.68342 9.09763 7.31658 8.70711 7.70711L5.41421 11L15 11C15.5523 11 16 11.4477 16 12C16 12.5523 15.5523 13 15 13L5.41421 13L8.70711 16.2929C9.09763 16.6834 9.09763 17.3166 8.70711 17.7071Z"
        fill="#EFE1A2" />
</svg>