<svg
    id="Ico_web"
    xmlns="http://www.w3.org/2000/svg"
    width="33.188"
    height="33.175"
    viewBox="0 0 33.188 33.175"
>
    <defs>
        <clipPath id="clipPath">
            <rect
                id="Rectángulo_125"
                width="33.188"
                height="33.175"
                fill="#8b9592"
            />
        </clipPath>
    </defs>
    <g id="Grupo_146">
        <path
            id="Trazado_56"
            d="M17.57,33.175H15.626c-.094-.019-.188-.041-.283-.056-.9-.14-1.825-.216-2.712-.429A16.6,16.6,0,0,1,.3,13.482,16.125,16.125,0,0,1,5.356,4.4,16.208,16.208,0,0,1,18.883.156,15.841,15.841,0,0,1,27.522,4.1a16.242,16.242,0,0,1,5.411,9.623c.109.623.171,1.255.255,1.883v1.944c-.02.114-.044.228-.059.343-.079.6-.126,1.2-.238,1.8a16.2,16.2,0,0,1-4.5,8.547,16.179,16.179,0,0,1-8.937,4.679c-.625.108-1.258.171-1.887.255M10.015,10.329a25.333,25.333,0,0,0-.682,5.255h6.276V10.72l-5.594-.391m7.571,5.261h6.282a25.5,25.5,0,0,0-.676-5.217l-5.605.353Zm-10.3.006L8,9.993,7.864,9.96c-1.185-.28-2.372-.549-3.552-.849-.234-.06-.317,0-.424.187a14.114,14.114,0,0,0-1.59,4.15c-.145.7-.227,1.415-.342,2.147Zm21.948,8.393A14.392,14.392,0,0,0,31.2,17.576H25.9L25.2,23.041l4.035.948m0-14.8-4.021.9.692,5.507H31.2a14.408,14.408,0,0,0-1.964-6.4M17.587,17.573v4.774l5.592.385a25.727,25.727,0,0,0,.685-5.159ZM10.01,22.694l5.59-.349V17.572H9.332a25.338,25.338,0,0,0,.677,5.122M7.295,17.573H2.027a.466.466,0,0,0-.019.1,14.1,14.1,0,0,0,1.846,6.1.393.393,0,0,0,.339.089c1.03-.229,2.055-.477,3.083-.713.257-.059.518-.1.716-.131l-.7-5.449m10.292-8.81,5.053-.3c-.091-.249-.154-.428-.222-.606a12.443,12.443,0,0,0-2.6-4.357,4.989,4.989,0,0,0-2.228-1.407Zm-7,15.842a12.457,12.457,0,0,0,3.08,5.228,4.9,4.9,0,0,0,1.938,1.127V24.306l-5.018.3M15.606,8.756V2.1a4.4,4.4,0,0,0-1.708.928,11.075,11.075,0,0,0-2.935,4.357c-.137.322-.25.654-.4,1.04l5.039.335m1.966,22.259c2.892-1.194,4-3.714,5.078-6.374l-5.056-.33c-.013.12-.021.162-.021.2,0,2.137,0,4.273,0,6.5M5.116,25.6c.97,1.624,5,4.58,6.193,4.554a16.919,16.919,0,0,1-2.717-5.28L5.116,25.6m22.947.086-3.477-.763a17.916,17.916,0,0,1-2.669,5.26,14.267,14.267,0,0,0,6.145-4.5M22,3a17.774,17.774,0,0,1,2.607,5.194l3.453-.719A14.385,14.385,0,0,0,22,3M11.193,3A14.369,14.369,0,0,0,5.2,7.386l3.4.751A17.674,17.674,0,0,1,11.193,3"
            transform="translate(0 0)"
            fill="#8b9592"
        />
    </g>
</svg>